# xmcd CD database file
#
# Track frame offsets:
#	150
#	18525
#	39193
#	53987
#	87786
#	105408
#	116019
#	142439
#	162627
#	183689
#	198287
#	222913
#	244005
#	262301
#	283181
#	300453
#
# Disc length: 4336 seconds
#
# Revision: 0
# Processed by: cddbd v1.5.2PL0 Copyright (c) Steve Scherf et al.
# Submitted via: CDex 1.51
#
DISCID=f210ee10
DTITLE=Calvin Russell - This is my life
DYEAR=1998
DGENRE=Blues
TTITLE0=This is my life
TTITLE1=Crack in time
TTITLE2=Big Brother
TTITLE3=Crossroads
TTITLE4=One meat ball
TTITLE5=Baby I love you
TTITLE6=Soldier
TTITLE7=Rats and Roaches
TTITLE8=This is your world
TTITLE9=Don`t turn your head
TTITLE10=Trouble
TTITLE11=Valley far below
TTITLE12=Texas Song
TTITLE13=Let the music play
TTITLE14=It`s all over now
TTITLE15=Forever Young
EXTD=YEAR: 1998
EXTT0=
EXTT1=
EXTT2=
EXTT3=
EXTT4=
EXTT5=
EXTT6=
EXTT7=
EXTT8=
EXTT9=
EXTT10=
EXTT11=
EXTT12=
EXTT13=
EXTT14=
EXTT15=
PLAYORDER=
